<svg width="66" height="93" viewBox="0 0 66 93" fill="none" xmlns="http://www.w3.org/2000/svg">
<path d="M58.0175 37.6041L58.0057 37.6574V37.712V47.6989C58.0057 47.9962 57.8116 48.366 57.292 48.6853C56.7761 49.0024 56.0443 49.1963 55.2557 49.1963C54.4672 49.1963 53.7354 49.0024 53.2194 48.6853C52.6999 48.366 52.5057 47.9962 52.5057 47.6989V43.1049V42.1308L51.7142 42.6987L37.9342 52.5857L37.934 52.5859C37.5226 52.8814 36.9245 53.0967 36.2358 53.1666C35.5498 53.2364 34.8516 53.1537 34.2702 52.9419C34.27 52.9418 34.2697 52.9417 34.2695 52.9416L20.3936 47.829L20.1408 47.7358L19.924 47.8957L5.46145 58.5617L5.46136 58.5618C5.21159 58.7461 4.88509 58.9038 4.49939 59.0146C4.11459 59.1252 3.68966 59.1836 3.25622 59.1831L3.25512 59.1831C2.56236 59.184 1.90655 59.0348 1.40262 58.7782C1.12003 58.6342 0.903744 58.4659 0.754669 58.2922C0.606643 58.1196 0.531413 57.9501 0.508193 57.7953C0.485321 57.6428 0.509459 57.4834 0.592662 57.3189L0.147987 57.094L0.592663 57.3189C0.67762 57.1509 0.826249 56.9749 1.04999 56.8099C1.04999 56.8099 1.05 56.8099 1.05 56.8098L17.3 44.8256L17.3004 44.8253C17.7079 44.5242 18.3082 44.3027 19.0039 44.2292C19.697 44.156 20.404 44.2386 20.9915 44.4534C20.9915 44.4534 20.9916 44.4534 20.9916 44.4534L35.0315 49.5866L35.2811 49.6779L35.4963 49.5221L48.4963 40.1145L49.747 39.2094H48.2032H39.0057C38.2172 39.2094 37.4854 39.0155 36.9694 38.6984C36.4499 38.3791 36.2557 38.0093 36.2557 37.712C36.2557 37.4148 36.4499 37.045 36.9694 36.7257C37.4854 36.4086 38.2172 36.2147 39.0057 36.2147H55.1878C55.3772 36.2696 55.5438 36.3414 55.6825 36.424L55.8007 36.4943H55.9382H56.5343C56.704 36.533 56.8598 36.5855 56.9974 36.6486L57.0169 36.6575L57.037 36.6647L57.3864 36.79C57.5129 36.8636 57.615 36.9431 57.6934 37.0232L57.7132 37.0434L57.7352 37.0613C57.8173 37.128 57.8895 37.1965 57.9522 37.2657C57.988 37.3178 58.0082 37.3649 58.0186 37.4055C58.0326 37.4719 58.0322 37.5377 58.0175 37.6041Z" fill="#231F20" stroke="black"/>
</svg>
