<svg width="32" height="24" viewBox="0 0 32 24" fill="none" xmlns="http://www.w3.org/2000/svg">
<path d="M20.7813 14H19.7444L19.3769 13.73C20.7076 12.554 21.439 11.0527 21.4375 9.5C21.4375 8.21442 20.9372 6.95771 19.9997 5.88879C19.0623 4.81987 17.7299 3.98675 16.171 3.49478C14.6121 3.00281 12.8968 2.87409 11.2419 3.1249C9.58699 3.3757 8.06687 3.99476 6.87375 4.90381C5.68063 5.81285 4.86811 6.97104 4.53893 8.23191C4.20975 9.49279 4.3787 10.7997 5.02441 11.9874C5.67012 13.1752 6.76359 14.1903 8.16655 14.9046C9.5695 15.6188 11.2189 16 12.9063 16C15.0194 16 16.9619 15.41 18.4581 14.43L18.8125 14.71V15.5L25.375 20.49L27.3306 19L20.7813 14ZM12.9063 14C9.63813 14 7 11.99 7 9.5C7 7.01 9.63813 5 12.9063 5C16.1744 5 18.8125 7.01 18.8125 9.5C18.8125 11.99 16.1744 14 12.9063 14Z" fill="#1F1F1F"/>
</svg>
