<svg width="211" height="64" viewBox="0 0 211 64" fill="none" xmlns="http://www.w3.org/2000/svg">
<rect opacity="0.4" width="210.352" height="64" rx="32" fill="white"/>
<path d="M27.0452 13.4095L30.9048 25.8804L31.0138 26.2326H31.3824L43.9379 26.2326L33.7597 33.9963L33.482 34.2081L33.5853 34.5417L37.4602 47.0624L27.3485 39.3493L27.0452 39.118L26.742 39.3493L16.6303 47.0624L20.5052 34.5417L20.6084 34.2081L20.3308 33.9963L10.1526 26.2326L22.7081 26.2326H23.0767L23.1857 25.8804L27.0452 13.4095Z" fill="#3733DF" stroke="#1F1F1F"/>
<path d="M65.6813 13.4095L69.5409 25.8804L69.6499 26.2326H70.0185L82.574 26.2326L72.3958 33.9963L72.1181 34.2081L72.2214 34.5417L76.0963 47.0624L65.9846 39.3493L65.6813 39.118L65.3781 39.3493L55.2664 47.0624L59.1413 34.5417L59.2445 34.2081L58.9669 33.9963L48.7887 26.2326L61.3442 26.2326H61.7128L61.8218 25.8804L65.6813 13.4095Z" fill="#3733DF" stroke="#1F1F1F"/>
<path d="M142.954 13.4095L146.813 25.8804L146.922 26.2326H147.291L159.846 26.2326L149.668 33.9963L149.39 34.2081L149.494 34.5417L153.369 47.0624L143.257 39.3493L142.954 39.118L142.65 39.3493L132.539 47.0624L136.414 34.5417L136.517 34.2081L136.239 33.9963L126.061 26.2326L138.616 26.2326H138.985L139.094 25.8804L142.954 13.4095Z" fill="#3733DF" stroke="#1F1F1F"/>
<path d="M104.318 13.4095L108.177 25.8804L108.286 26.2326H108.655L121.21 26.2326L111.032 33.9963L110.754 34.2081L110.858 34.5417L114.733 47.0624L104.621 39.3493L104.318 39.118L104.014 39.3493L93.9026 47.0624L97.7775 34.5417L97.8808 34.2081L97.6031 33.9963L87.4249 26.2326L99.9804 26.2326H100.349L100.458 25.8804L104.318 13.4095Z" fill="#3733DF" stroke="#1F1F1F"/>
<path d="M181.59 13.4095L185.449 25.8804L185.558 26.2326H185.927L198.482 26.2326L188.304 33.9963L188.026 34.2081L188.13 34.5417L192.005 47.0624L181.893 39.3493L181.59 39.118L181.286 39.3493L171.175 47.0624L175.049 34.5417L175.153 34.2081L174.875 33.9963L164.697 26.2326L177.252 26.2326H177.621L177.73 25.8804L181.59 13.4095Z" fill="#F2F3F5" stroke="#1F1F1F"/>
</svg>
