<svg width="211" height="55" viewBox="0 0 211 55" fill="none" xmlns="http://www.w3.org/2000/svg">
<rect opacity="0.4" width="210.393" height="54.2949" rx="27.1474" fill="white"/>
<path d="M27.0504 11.4001L30.9187 22.0019L31.0386 22.3305H31.3884H43.7332L33.7978 28.7586L33.4631 28.9752L33.5997 29.3498L37.4263 39.8372L27.322 33.2999L27.0504 33.1241L26.7788 33.2999L16.6745 39.8372L20.5011 29.3498L20.6377 28.9752L20.303 28.7586L10.3676 22.3305H22.7124H23.0622L23.1821 22.0019L27.0504 11.4001Z" fill="#3733DF" stroke="#1F1F1F"/>
<path d="M65.694 11.4001L69.5623 22.0019L69.6822 22.3305H70.032H82.3768L72.4414 28.7586L72.1066 28.9752L72.2433 29.3498L76.0699 39.8372L65.9656 33.2999L65.694 33.1241L65.4224 33.2999L55.3181 39.8372L59.1446 29.3498L59.2813 28.9752L58.9465 28.7586L49.0111 22.3305H61.356H61.7058L61.8257 22.0019L65.694 11.4001Z" fill="#3733DF" stroke="#1F1F1F"/>
<path d="M142.981 11.4001L146.849 22.0019L146.969 22.3305H147.319H159.664L149.729 28.7586L149.394 28.9752L149.53 29.3498L153.357 39.8372L143.253 33.2999L142.981 33.1241L142.709 33.2999L132.605 39.8372L136.432 29.3498L136.568 28.9752L136.234 28.7586L126.298 22.3305H138.643H138.993L139.113 22.0019L142.981 11.4001Z" fill="url(#paint0_linear_97_200)" stroke="#1F1F1F"/>
<path d="M104.338 11.4001L108.206 22.0019L108.326 22.3305H108.676H121.02L111.085 28.7586L110.75 28.9752L110.887 29.3498L114.714 39.8372L104.609 33.2999L104.338 33.1241L104.066 33.2999L93.9617 39.8372L97.7883 29.3498L97.925 28.9752L97.5902 28.7586L87.6548 22.3305H99.9996H100.349L100.469 22.0019L104.338 11.4001Z" fill="#3733DF" stroke="#1F1F1F"/>
<path d="M181.625 11.4001L185.493 22.0019L185.613 22.3305H185.963H198.307L188.372 28.7586L188.037 28.9752L188.174 29.3498L192 39.8372L181.896 33.2999L181.625 33.1241L181.353 33.2999L171.249 39.8372L175.075 29.3498L175.212 28.9752L174.877 28.7586L164.942 22.3305H177.286H177.636L177.756 22.0019L181.625 11.4001Z" fill="white" stroke="#1F1F1F"/>
<defs>
<linearGradient id="paint0_linear_97_200" x1="123.659" y1="27.1475" x2="162.303" y2="27.1475" gradientUnits="userSpaceOnUse">
<stop offset="0.48" stop-color="#3733DF"/>
<stop offset="0.655" stop-color="#F2F3F5"/>
</linearGradient>
</defs>
</svg>
