<svg width="225" height="50" viewBox="0 0 225 50" fill="none" xmlns="http://www.w3.org/2000/svg">
<rect opacity="0.4" width="224.474" height="50" rx="25" fill="white"/>
<path d="M28.8609 10.4392L33.0288 20.2984L33.1578 20.6037H33.4893L46.5461 20.6037L36.106 26.4338L35.7148 26.6523L35.8892 27.065L39.9506 36.6726L29.1047 30.6158L28.8609 30.4797L28.6172 30.6158L17.7712 36.6726L21.8326 27.065L22.0071 26.6523L21.6159 26.4338L11.1758 20.6037L24.2326 20.6037H24.5641L24.6931 20.2984L28.8609 10.4392Z" fill="#3733DF" stroke="#1F1F1F"/>
<path d="M70.0909 10.4392L74.2587 20.2984L74.3878 20.6037H74.7193L87.7761 20.6037L77.336 26.4338L76.9447 26.6523L77.1192 27.065L81.1806 36.6726L70.3347 30.6158L70.0909 30.4797L69.8471 30.6158L59.0012 36.6726L63.0626 27.065L63.2371 26.6523L62.8459 26.4338L52.4058 20.6037L65.4626 20.6037H65.794L65.9231 20.2984L70.0909 10.4392Z" fill="#3733DF" stroke="#1F1F1F"/>
<path d="M152.551 10.4392L156.719 20.2984L156.848 20.6037H157.179L170.236 20.6037L159.796 26.4338L159.405 26.6523L159.579 27.065L163.641 36.6726L152.795 30.6158L152.551 30.4797L152.307 30.6158L141.461 36.6726L145.523 27.065L145.697 26.6523L145.306 26.4338L134.866 20.6037L147.922 20.6037H148.254L148.383 20.2984L152.551 10.4392Z" fill="#3733DF" stroke="#1F1F1F"/>
<path d="M111.321 10.4392L115.489 20.2984L115.618 20.6037H115.949L129.006 20.6037L118.566 26.4338L118.175 26.6523L118.349 27.065L122.411 36.6726L111.565 30.6158L111.321 30.4797L111.077 30.6158L100.231 36.6726L104.293 27.065L104.467 26.6523L104.076 26.4338L93.636 20.6037L106.693 20.6037H107.024L107.153 20.2984L111.321 10.4392Z" fill="#3733DF" stroke="#1F1F1F"/>
<path d="M193.781 10.4392L197.949 20.2984L198.078 20.6037H198.409L211.466 20.6037L201.026 26.4338L200.635 26.6523L200.809 27.065L204.87 36.6726L194.024 30.6158L193.781 30.4797L193.537 30.6158L182.691 36.6726L186.752 27.065L186.927 26.6523L186.536 26.4338L176.096 20.6037L189.152 20.6037H189.484L189.613 20.2984L193.781 10.4392Z" fill="url(#paint0_linear_97_130)" stroke="#1F1F1F"/>
<defs>
<linearGradient id="paint0_linear_97_130" x1="173.166" y1="25.0001" x2="214.396" y2="25.0001" gradientUnits="userSpaceOnUse">
<stop offset="0.18" stop-color="#3733DF"/>
<stop offset="0.555" stop-color="#F9EDED"/>
</linearGradient>
</defs>
</svg>
