<svg width="365" height="68" viewBox="0 0 365 68" fill="none" xmlns="http://www.w3.org/2000/svg">
<path d="M357.368 31.9105C356.559 30.7908 356.154 29.4312 356.154 27.8317C356.154 26.2322 356.559 24.8726 357.368 23.7529C358.178 22.5799 359.084 21.9934 360.086 21.9934C361.126 21.9934 361.994 22.3666 362.687 23.1131C363.42 23.8062 363.94 24.7126 364.249 25.8323C364.287 25.8856 364.306 25.9389 364.306 25.9922V26.0722C364.769 27.4585 365 29.3779 365 31.8305C365 34.2298 364.884 36.2825 364.653 37.9887C364.422 39.6948 363.998 41.5076 363.381 43.427C362.765 45.3465 362.013 47.0793 361.126 48.6255C360.24 50.1184 359.045 51.3714 357.542 52.3844C356.077 53.3441 354.439 53.824 352.628 53.824C349.544 53.824 347.232 52.2778 345.69 49.1853C343.84 52.2778 341.315 53.824 338.116 53.824C335.649 53.824 333.626 52.7576 332.045 50.6249C330.504 48.4922 329.733 46.0396 329.733 43.2671C329.733 40.4946 330.08 37.0823 330.773 33.0301C331.506 28.9247 331.91 25.779 331.988 23.5929C331.371 23.6463 330.773 23.9662 330.195 24.5527C329.617 25.0858 329.193 25.619 328.923 26.1522L328.519 26.9519L327.651 25.9922C327.767 25.6723 327.94 25.2991 328.172 24.8726C328.403 24.446 328.981 23.8595 329.906 23.1131C330.87 22.3666 332.065 21.9934 333.491 21.9934C334.917 21.9934 336.054 22.6332 336.902 23.9128C337.788 25.1925 338.232 26.8186 338.232 28.7914C338.232 30.7641 337.846 33.8299 337.075 37.9887C336.304 42.0941 335.919 44.9999 335.919 46.7061C335.919 48.3589 336.189 49.6652 336.728 50.6249C337.307 51.5846 338.116 52.0645 339.157 52.0645C341.392 52.0645 343.3 50.465 344.88 47.2659C344.456 45.773 344.244 44.0402 344.244 42.0675C344.244 40.0947 344.591 37.0823 345.285 33.0301C346.017 28.9247 346.422 25.779 346.499 23.5929C345.882 23.6463 345.285 23.9662 344.707 24.5527C344.129 25.0858 343.705 25.619 343.435 26.1522L343.03 26.9519L342.163 25.9922C342.279 25.6723 342.452 25.2991 342.683 24.8726C342.915 24.446 343.493 23.8595 344.418 23.1131C345.381 22.3666 346.576 21.9934 348.002 21.9934C349.429 21.9934 350.566 22.6332 351.414 23.9128C352.3 25.1925 352.743 26.8186 352.743 28.7914C352.743 30.7641 352.358 33.8299 351.587 37.9887C350.816 42.0941 350.431 44.9999 350.431 46.7061C350.431 48.3589 350.7 49.6652 351.24 50.6249C351.818 51.5846 352.628 52.0645 353.668 52.0645C356.251 52.0645 358.563 50.1451 360.606 46.3062C362.649 42.414 363.67 38.042 363.67 33.1901C363.67 32.8169 363.632 32.257 363.555 31.5106C362.745 32.8968 361.705 33.59 360.433 33.59C359.199 33.59 358.178 33.0301 357.368 31.9105Z" fill="black"/>
<path d="M357.368 31.9105C356.559 30.7908 356.154 29.4312 356.154 27.8317C356.154 26.2322 356.559 24.8726 357.368 23.7529C358.178 22.5799 359.084 21.9934 360.086 21.9934C361.126 21.9934 361.994 22.3666 362.687 23.1131C363.42 23.8062 363.94 24.7126 364.249 25.8323C364.287 25.8856 364.306 25.9389 364.306 25.9922V26.0722C364.769 27.4585 365 29.3779 365 31.8305C365 34.2298 364.884 36.2825 364.653 37.9887C364.422 39.6948 363.998 41.5076 363.381 43.427C362.765 45.3465 362.013 47.0793 361.126 48.6255C360.24 50.1184 359.045 51.3714 357.542 52.3844C356.077 53.3441 354.439 53.824 352.628 53.824C349.544 53.824 347.232 52.2778 345.69 49.1853C343.84 52.2778 341.315 53.824 338.116 53.824C335.649 53.824 333.626 52.7576 332.045 50.6249C330.504 48.4922 329.733 46.0396 329.733 43.2671C329.733 40.4946 330.08 37.0823 330.773 33.0301C331.506 28.9247 331.91 25.779 331.988 23.5929C331.371 23.6463 330.773 23.9662 330.195 24.5527C329.617 25.0858 329.193 25.619 328.923 26.1522L328.519 26.9519L327.651 25.9922C327.767 25.6723 327.94 25.2991 328.172 24.8726C328.403 24.446 328.981 23.8595 329.906 23.1131C330.87 22.3666 332.065 21.9934 333.491 21.9934C334.917 21.9934 336.054 22.6332 336.902 23.9128C337.788 25.1925 338.232 26.8186 338.232 28.7914C338.232 30.7641 337.846 33.8299 337.075 37.9887C336.304 42.0941 335.919 44.9999 335.919 46.7061C335.919 48.3589 336.189 49.6652 336.728 50.6249C337.307 51.5846 338.116 52.0645 339.157 52.0645C341.392 52.0645 343.3 50.465 344.88 47.2659C344.456 45.773 344.244 44.0402 344.244 42.0675C344.244 40.0947 344.591 37.0823 345.285 33.0301C346.017 28.9247 346.422 25.779 346.499 23.5929C345.882 23.6463 345.285 23.9662 344.707 24.5527C344.129 25.0858 343.705 25.619 343.435 26.1522L343.03 26.9519L342.163 25.9922C342.279 25.6723 342.452 25.2991 342.683 24.8726C342.915 24.446 343.493 23.8595 344.418 23.1131C345.381 22.3666 346.576 21.9934 348.002 21.9934C349.429 21.9934 350.566 22.6332 351.414 23.9128C352.3 25.1925 352.743 26.8186 352.743 28.7914C352.743 30.7641 352.358 33.8299 351.587 37.9887C350.816 42.0941 350.431 44.9999 350.431 46.7061C350.431 48.3589 350.7 49.6652 351.24 50.6249C351.818 51.5846 352.628 52.0645 353.668 52.0645C356.251 52.0645 358.563 50.1451 360.606 46.3062C362.649 42.414 363.67 38.042 363.67 33.1901C363.67 32.8169 363.632 32.257 363.555 31.5106C362.745 32.8968 361.705 33.59 360.433 33.59C359.199 33.59 358.178 33.0301 357.368 31.9105Z" fill="black" fill-opacity="0.2"/>
<path d="M311.497 53.824C308.53 53.824 306.275 52.8109 304.733 50.7849C303.191 48.7055 302.42 46.1196 302.42 43.0272C302.42 39.8814 302.613 37.2156 302.999 35.0295C303.423 32.7902 304.097 30.6575 305.022 28.6314C305.947 26.5521 307.335 24.9259 309.185 23.7529C311.074 22.5799 313.405 21.9934 316.181 21.9934C318.994 21.9934 321.172 23.0331 322.714 25.1125C324.294 27.1386 325.084 29.9377 325.084 33.51C325.084 39.5882 323.909 44.4934 321.557 48.2256C319.245 51.9579 315.891 53.824 311.497 53.824ZM308.954 45.5864C308.954 49.8518 309.84 51.9845 311.613 51.9845C313.425 51.9845 315.024 49.8518 316.412 45.5864C317.838 41.2677 318.551 36.1492 318.551 30.231C318.551 25.7523 317.664 23.513 315.891 23.513C314.157 23.513 312.557 25.5657 311.093 29.6711C309.667 33.7233 308.954 39.0284 308.954 45.5864Z" fill="black"/>
<path d="M311.497 53.824C308.53 53.824 306.275 52.8109 304.733 50.7849C303.191 48.7055 302.42 46.1196 302.42 43.0272C302.42 39.8814 302.613 37.2156 302.999 35.0295C303.423 32.7902 304.097 30.6575 305.022 28.6314C305.947 26.5521 307.335 24.9259 309.185 23.7529C311.074 22.5799 313.405 21.9934 316.181 21.9934C318.994 21.9934 321.172 23.0331 322.714 25.1125C324.294 27.1386 325.084 29.9377 325.084 33.51C325.084 39.5882 323.909 44.4934 321.557 48.2256C319.245 51.9579 315.891 53.824 311.497 53.824ZM308.954 45.5864C308.954 49.8518 309.84 51.9845 311.613 51.9845C313.425 51.9845 315.024 49.8518 316.412 45.5864C317.838 41.2677 318.551 36.1492 318.551 30.231C318.551 25.7523 317.664 23.513 315.891 23.513C314.157 23.513 312.557 25.5657 311.093 29.6711C309.667 33.7233 308.954 39.0284 308.954 45.5864Z" fill="black" fill-opacity="0.2"/>
<path d="M295.636 62.0615C298.18 62.0615 299.914 60.1154 300.839 56.2232H302.111C302.073 56.4365 302.015 56.7297 301.938 57.103C301.899 57.4762 301.687 58.1427 301.302 59.1024C300.916 60.0621 300.435 60.9152 299.856 61.6616C299.278 62.4081 298.392 63.0745 297.197 63.661C296.041 64.2475 294.711 64.5408 293.208 64.5408C289.97 64.5408 287.349 63.4211 285.345 61.1818C283.34 58.9957 281.645 55.6634 280.257 51.1847L272.221 21.6735L266.381 36.3891C262.18 47.2659 258.249 54.8903 254.587 59.2623C250.925 63.6344 246.608 65.8204 241.636 65.8204C237.666 65.8204 234.371 63.8743 231.75 59.9821C229.707 56.8364 228.686 52.9709 228.686 48.3856C228.686 47.5858 228.724 46.7594 228.801 45.9063L229.9 46.1462C229.861 46.8393 229.842 47.5325 229.842 48.2256C229.842 52.4377 230.748 55.9833 232.559 58.8624C234.833 62.4347 237.859 64.2209 241.636 64.2209C246.339 64.2209 250.463 62.0882 254.009 57.8228C257.555 53.5574 261.371 46.1462 265.456 35.5894L275.285 10.7967C271.315 10.6901 267.557 9.86365 264.011 8.31745C260.465 6.71792 257.227 5.91816 254.298 5.91816C251.369 5.91816 248.921 7.30441 246.955 10.0769C245.028 12.8494 244.065 16.4484 244.065 20.8737H242.966C242.966 16.0218 244.045 12.0497 246.204 8.95725C248.362 5.86484 251.137 4.31863 254.529 4.31863C257.227 4.31863 260.503 5.14505 264.358 6.79789C268.251 8.39742 272.413 9.19719 276.846 9.19719L286.096 43.9869C289.18 37.2155 291.685 31.4306 293.612 26.632C295.578 21.8334 297.139 18.1812 298.295 15.6753C299.49 13.1693 300.55 11.2499 301.475 9.91697C303.595 6.93119 306.004 5.4383 308.702 5.4383V7.03783C307.199 7.03783 305.811 7.59766 304.539 8.71733C303.306 9.78368 301.996 11.6231 300.608 14.2357C299.259 16.7949 298.026 19.3808 296.908 21.9934C295.79 24.6059 294.229 28.3115 292.225 33.1101C290.221 37.8553 288.351 42.0941 286.617 45.8263C287.734 49.6119 288.698 52.6243 289.507 54.8636C290.355 57.103 291.223 58.8624 292.109 60.1421C293.034 61.4217 294.21 62.0615 295.636 62.0615Z" fill="black"/>
<path d="M295.636 62.0615C298.18 62.0615 299.914 60.1154 300.839 56.2232H302.111C302.073 56.4365 302.015 56.7297 301.938 57.103C301.899 57.4762 301.687 58.1427 301.302 59.1024C300.916 60.0621 300.435 60.9152 299.856 61.6616C299.278 62.4081 298.392 63.0745 297.197 63.661C296.041 64.2475 294.711 64.5408 293.208 64.5408C289.97 64.5408 287.349 63.4211 285.345 61.1818C283.34 58.9957 281.645 55.6634 280.257 51.1847L272.221 21.6735L266.381 36.3891C262.18 47.2659 258.249 54.8903 254.587 59.2623C250.925 63.6344 246.608 65.8204 241.636 65.8204C237.666 65.8204 234.371 63.8743 231.75 59.9821C229.707 56.8364 228.686 52.9709 228.686 48.3856C228.686 47.5858 228.724 46.7594 228.801 45.9063L229.9 46.1462C229.861 46.8393 229.842 47.5325 229.842 48.2256C229.842 52.4377 230.748 55.9833 232.559 58.8624C234.833 62.4347 237.859 64.2209 241.636 64.2209C246.339 64.2209 250.463 62.0882 254.009 57.8228C257.555 53.5574 261.371 46.1462 265.456 35.5894L275.285 10.7967C271.315 10.6901 267.557 9.86365 264.011 8.31745C260.465 6.71792 257.227 5.91816 254.298 5.91816C251.369 5.91816 248.921 7.30441 246.955 10.0769C245.028 12.8494 244.065 16.4484 244.065 20.8737H242.966C242.966 16.0218 244.045 12.0497 246.204 8.95725C248.362 5.86484 251.137 4.31863 254.529 4.31863C257.227 4.31863 260.503 5.14505 264.358 6.79789C268.251 8.39742 272.413 9.19719 276.846 9.19719L286.096 43.9869C289.18 37.2155 291.685 31.4306 293.612 26.632C295.578 21.8334 297.139 18.1812 298.295 15.6753C299.49 13.1693 300.55 11.2499 301.475 9.91697C303.595 6.93119 306.004 5.4383 308.702 5.4383V7.03783C307.199 7.03783 305.811 7.59766 304.539 8.71733C303.306 9.78368 301.996 11.6231 300.608 14.2357C299.259 16.7949 298.026 19.3808 296.908 21.9934C295.79 24.6059 294.229 28.3115 292.225 33.1101C290.221 37.8553 288.351 42.0941 286.617 45.8263C287.734 49.6119 288.698 52.6243 289.507 54.8636C290.355 57.103 291.223 58.8624 292.109 60.1421C293.034 61.4217 294.21 62.0615 295.636 62.0615Z" fill="black" fill-opacity="0.2"/>
<path d="M210.836 61.8216C212.224 61.8216 213.418 61.0751 214.421 59.5822L215.23 60.542C214.305 62.3548 212.84 63.2612 210.836 63.2612C209.988 63.2612 209.121 63.1279 208.234 62.8613C205.613 66.167 202.26 67.8198 198.174 67.8198C195.746 67.8198 193.858 67.2333 192.509 66.0603C191.198 64.9407 190.543 63.4478 190.543 61.5817C190.543 59.7689 190.948 58.3026 191.757 57.183C192.605 56.1166 194.089 55.5834 196.209 55.5834C198.329 55.5834 201.123 56.7831 204.592 59.1824L206.384 45.9063C204.65 50.3317 202.414 52.5443 199.678 52.5443C194.436 52.5443 191.815 48.9721 191.815 41.8275C191.815 35.856 192.894 31.0574 195.052 27.4318C197.249 23.8062 200.044 21.9934 203.436 21.9934C205.401 21.9934 206.924 22.8198 208.003 24.4727C208.311 24.9525 208.62 25.6723 208.928 26.632L209.448 22.7132C212.301 22.7132 214.382 22.5532 215.692 22.2333L216.444 21.9934L212.628 51.5047C212.05 55.6634 210.894 59.0224 209.159 61.5817C209.66 61.7416 210.219 61.8216 210.836 61.8216ZM198.348 44.3068C198.348 46.7594 198.521 48.4122 198.868 49.2653C199.215 50.0651 199.87 50.465 200.834 50.465C201.798 50.465 202.78 49.7452 203.783 48.3056C204.785 46.866 205.498 45.5331 205.922 44.3068C206.384 43.0272 206.77 41.8009 207.078 40.6279L208.292 31.4306V30.8708C208.292 25.9656 206.673 23.513 203.436 23.513C202.202 23.513 201.046 25.8323 199.967 30.4709C198.887 35.1095 198.348 39.7215 198.348 44.3068ZM197.943 66.2203C201.027 66.2203 203.108 64.3808 204.187 60.7019L203.378 60.1421C202.915 59.8222 202.626 59.6089 202.511 59.5023C202.433 59.449 202.183 59.289 201.759 59.0224C201.335 58.7558 201.027 58.5692 200.834 58.4626C200.641 58.4093 200.333 58.276 199.909 58.0627C199.523 57.8494 199.196 57.6895 198.926 57.5828C198.656 57.5295 198.348 57.4495 198.001 57.3429C197.423 57.183 196.575 57.103 195.457 57.103C194.339 57.103 193.434 57.4762 192.74 58.2227C192.085 58.9691 191.757 60.0621 191.757 61.5017C191.757 62.9413 192.316 64.0876 193.434 64.9407C194.551 65.7937 196.055 66.2203 197.943 66.2203Z" fill="black"/>
<path d="M210.836 61.8216C212.224 61.8216 213.418 61.0751 214.421 59.5822L215.23 60.542C214.305 62.3548 212.84 63.2612 210.836 63.2612C209.988 63.2612 209.121 63.1279 208.234 62.8613C205.613 66.167 202.26 67.8198 198.174 67.8198C195.746 67.8198 193.858 67.2333 192.509 66.0603C191.198 64.9407 190.543 63.4478 190.543 61.5817C190.543 59.7689 190.948 58.3026 191.757 57.183C192.605 56.1166 194.089 55.5834 196.209 55.5834C198.329 55.5834 201.123 56.7831 204.592 59.1824L206.384 45.9063C204.65 50.3317 202.414 52.5443 199.678 52.5443C194.436 52.5443 191.815 48.9721 191.815 41.8275C191.815 35.856 192.894 31.0574 195.052 27.4318C197.249 23.8062 200.044 21.9934 203.436 21.9934C205.401 21.9934 206.924 22.8198 208.003 24.4727C208.311 24.9525 208.62 25.6723 208.928 26.632L209.448 22.7132C212.301 22.7132 214.382 22.5532 215.692 22.2333L216.444 21.9934L212.628 51.5047C212.05 55.6634 210.894 59.0224 209.159 61.5817C209.66 61.7416 210.219 61.8216 210.836 61.8216ZM198.348 44.3068C198.348 46.7594 198.521 48.4122 198.868 49.2653C199.215 50.0651 199.87 50.465 200.834 50.465C201.798 50.465 202.78 49.7452 203.783 48.3056C204.785 46.866 205.498 45.5331 205.922 44.3068C206.384 43.0272 206.77 41.8009 207.078 40.6279L208.292 31.4306V30.8708C208.292 25.9656 206.673 23.513 203.436 23.513C202.202 23.513 201.046 25.8323 199.967 30.4709C198.887 35.1095 198.348 39.7215 198.348 44.3068ZM197.943 66.2203C201.027 66.2203 203.108 64.3808 204.187 60.7019L203.378 60.1421C202.915 59.8222 202.626 59.6089 202.511 59.5023C202.433 59.449 202.183 59.289 201.759 59.0224C201.335 58.7558 201.027 58.5692 200.834 58.4626C200.641 58.4093 200.333 58.276 199.909 58.0627C199.523 57.8494 199.196 57.6895 198.926 57.5828C198.656 57.5295 198.348 57.4495 198.001 57.3429C197.423 57.183 196.575 57.103 195.457 57.103C194.339 57.103 193.434 57.4762 192.74 58.2227C192.085 58.9691 191.757 60.0621 191.757 61.5017C191.757 62.9413 192.316 64.0876 193.434 64.9407C194.551 65.7937 196.055 66.2203 197.943 66.2203Z" fill="black" fill-opacity="0.2"/>
<path d="M185.338 52.2244C186.263 52.2244 187.227 51.478 188.229 49.9851L189.096 50.9448C188.826 51.6913 188.229 52.3577 187.304 52.9442C186.379 53.5307 185.357 53.824 184.239 53.824C180.732 53.824 178.978 51.6379 178.978 47.2659C178.978 45.3998 179.325 42.0675 180.019 37.2689C180.713 32.4703 181.06 29.3246 181.06 27.8317C181.06 25.539 180.269 24.3927 178.689 24.3927C177.417 24.3927 176.184 25.539 174.989 27.8317C173.833 30.1243 172.869 33.2701 172.098 37.2689L170.132 52.2244C171.327 52.0645 172.31 51.318 173.081 49.9851L173.948 50.9448C172.792 52.8642 171.347 53.824 169.612 53.824C167.878 53.824 166.509 53.2108 165.507 51.9845C164.544 50.7582 164.062 49.1587 164.062 47.1859C164.062 46.4395 164.37 43.507 164.987 38.3885L166.895 23.5929C165.738 23.7529 164.775 24.4993 164.004 25.8323L163.137 24.8726C164.293 22.9531 165.738 21.9934 167.473 21.9934C169.246 21.9934 170.614 22.6066 171.578 23.8329C172.541 25.0592 173.023 26.792 173.023 29.0313V29.5112C174.603 24.4993 177.07 21.9934 180.424 21.9934C182.698 21.9934 184.471 22.8998 185.743 24.7126C187.015 26.4721 187.651 28.9247 187.651 32.0704C187.651 33.7233 187.284 36.9223 186.552 41.6676C185.82 46.3595 185.415 49.8785 185.338 52.2244Z" fill="black"/>
<path d="M185.338 52.2244C186.263 52.2244 187.227 51.478 188.229 49.9851L189.096 50.9448C188.826 51.6913 188.229 52.3577 187.304 52.9442C186.379 53.5307 185.357 53.824 184.239 53.824C180.732 53.824 178.978 51.6379 178.978 47.2659C178.978 45.3998 179.325 42.0675 180.019 37.2689C180.713 32.4703 181.06 29.3246 181.06 27.8317C181.06 25.539 180.269 24.3927 178.689 24.3927C177.417 24.3927 176.184 25.539 174.989 27.8317C173.833 30.1243 172.869 33.2701 172.098 37.2689L170.132 52.2244C171.327 52.0645 172.31 51.318 173.081 49.9851L173.948 50.9448C172.792 52.8642 171.347 53.824 169.612 53.824C167.878 53.824 166.509 53.2108 165.507 51.9845C164.544 50.7582 164.062 49.1587 164.062 47.1859C164.062 46.4395 164.37 43.507 164.987 38.3885L166.895 23.5929C165.738 23.7529 164.775 24.4993 164.004 25.8323L163.137 24.8726C164.293 22.9531 165.738 21.9934 167.473 21.9934C169.246 21.9934 170.614 22.6066 171.578 23.8329C172.541 25.0592 173.023 26.792 173.023 29.0313V29.5112C174.603 24.4993 177.07 21.9934 180.424 21.9934C182.698 21.9934 184.471 22.8998 185.743 24.7126C187.015 26.4721 187.651 28.9247 187.651 32.0704C187.651 33.7233 187.284 36.9223 186.552 41.6676C185.82 46.3595 185.415 49.8785 185.338 52.2244Z" fill="black" fill-opacity="0.2"/>
<path d="M159.657 50.9449C158.501 52.8644 157.055 53.8241 155.321 53.8241C153.587 53.8241 152.218 53.2109 151.216 51.9846C150.253 50.7583 149.771 49.1588 149.771 47.1861C149.771 46.4929 150.079 43.5871 150.696 38.4686L152.604 24.1529H150.175L150.291 22.7133H152.777C155.629 22.7133 157.73 22.5534 159.079 22.2335L159.888 21.9935L155.899 52.2246C157.055 52.0646 158.019 51.3182 158.79 49.9852L159.657 50.9449ZM154.569 14.3158C153.76 13.1961 153.355 11.8366 153.355 10.237C153.355 8.6375 153.76 7.2779 154.569 6.15824C155.379 4.98525 156.362 4.39876 157.518 4.39876C158.674 4.39876 159.657 4.98525 160.467 6.15824C161.315 7.2779 161.739 8.6375 161.739 10.237C161.739 11.8366 161.315 13.1961 160.467 14.3158C159.657 15.4355 158.674 15.9953 157.518 15.9953C156.362 15.9953 155.379 15.4355 154.569 14.3158Z" fill="black"/>
<path d="M159.657 50.9449C158.501 52.8644 157.055 53.8241 155.321 53.8241C153.587 53.8241 152.218 53.2109 151.216 51.9846C150.253 50.7583 149.771 49.1588 149.771 47.1861C149.771 46.4929 150.079 43.5871 150.696 38.4686L152.604 24.1529H150.175L150.291 22.7133H152.777C155.629 22.7133 157.73 22.5534 159.079 22.2335L159.888 21.9935L155.899 52.2246C157.055 52.0646 158.019 51.3182 158.79 49.9852L159.657 50.9449ZM154.569 14.3158C153.76 13.1961 153.355 11.8366 153.355 10.237C153.355 8.6375 153.76 7.2779 154.569 6.15824C155.379 4.98525 156.362 4.39876 157.518 4.39876C158.674 4.39876 159.657 4.98525 160.467 6.15824C161.315 7.2779 161.739 8.6375 161.739 10.237C161.739 11.8366 161.315 13.1961 160.467 14.3158C159.657 15.4355 158.674 15.9953 157.518 15.9953C156.362 15.9953 155.379 15.4355 154.569 14.3158Z" fill="black" fill-opacity="0.2"/>
<path d="M141.414 53.8241C138.022 53.8241 136.172 51.8247 135.864 47.8259C134.168 51.8247 132.01 53.8241 129.389 53.8241C126.768 53.8241 124.763 52.8111 123.376 50.785C121.988 48.7056 121.295 45.8798 121.295 42.3075C121.295 36.016 122.374 31.0575 124.532 27.4319C126.691 23.8063 129.485 21.9935 132.915 21.9935C134.881 21.9935 136.404 22.82 137.483 24.4728C137.945 25.3259 138.234 25.9657 138.35 26.3922L141.472 2.87922C140.316 3.03917 139.352 3.78562 138.581 5.11855L137.714 4.15884C138.87 2.23941 140.316 1.27969 142.05 1.27969C143.823 1.27969 145.192 1.89284 146.155 3.11915C147.119 4.34545 147.601 6.07827 147.601 8.3176C147.601 8.74414 147.562 9.43727 147.485 10.397C145.596 25.0593 143.765 39.0018 141.992 52.2246C143.149 52.0646 144.112 51.3182 144.883 49.9852L145.75 50.945C144.594 52.8644 143.149 53.8241 141.414 53.8241ZM127.828 45.5865C127.828 48.0391 128.001 49.7186 128.348 50.625C128.733 51.5314 129.312 51.9846 130.082 51.9846C130.892 51.9846 131.663 51.6114 132.395 50.865C133.127 50.1185 133.744 49.1588 134.245 47.9858C135.17 46.0131 135.825 44.3336 136.211 42.9473L137.888 30.3111C137.81 28.6049 137.406 27.0587 136.673 25.6724C135.941 24.2329 134.688 23.5131 132.915 23.5131C131.682 23.5131 130.526 26.019 129.446 31.0309C128.367 36.0427 127.828 40.8946 127.828 45.5865Z" fill="black"/>
<path d="M141.414 53.8241C138.022 53.8241 136.172 51.8247 135.864 47.8259C134.168 51.8247 132.01 53.8241 129.389 53.8241C126.768 53.8241 124.763 52.8111 123.376 50.785C121.988 48.7056 121.295 45.8798 121.295 42.3075C121.295 36.016 122.374 31.0575 124.532 27.4319C126.691 23.8063 129.485 21.9935 132.915 21.9935C134.881 21.9935 136.404 22.82 137.483 24.4728C137.945 25.3259 138.234 25.9657 138.35 26.3922L141.472 2.87922C140.316 3.03917 139.352 3.78562 138.581 5.11855L137.714 4.15884C138.87 2.23941 140.316 1.27969 142.05 1.27969C143.823 1.27969 145.192 1.89284 146.155 3.11915C147.119 4.34545 147.601 6.07827 147.601 8.3176C147.601 8.74414 147.562 9.43727 147.485 10.397C145.596 25.0593 143.765 39.0018 141.992 52.2246C143.149 52.0646 144.112 51.3182 144.883 49.9852L145.75 50.945C144.594 52.8644 143.149 53.8241 141.414 53.8241ZM127.828 45.5865C127.828 48.0391 128.001 49.7186 128.348 50.625C128.733 51.5314 129.312 51.9846 130.082 51.9846C130.892 51.9846 131.663 51.6114 132.395 50.865C133.127 50.1185 133.744 49.1588 134.245 47.9858C135.17 46.0131 135.825 44.3336 136.211 42.9473L137.888 30.3111C137.81 28.6049 137.406 27.0587 136.673 25.6724C135.941 24.2329 134.688 23.5131 132.915 23.5131C131.682 23.5131 130.526 26.019 129.446 31.0309C128.367 36.0427 127.828 40.8946 127.828 45.5865Z" fill="black" fill-opacity="0.2"/>
<path d="M114.876 52.2244C115.801 52.2244 116.764 51.478 117.766 49.9851L118.634 50.9448C118.364 51.6913 117.766 52.3577 116.841 52.9442C115.916 53.5307 114.895 53.824 113.777 53.824C110.27 53.824 108.516 51.6379 108.516 47.2659C108.516 45.3998 108.863 42.0675 109.557 37.2689C110.25 32.4703 110.597 29.3246 110.597 27.8317C110.597 25.539 109.807 24.3927 108.227 24.3927C106.955 24.3927 105.721 25.539 104.527 27.8317C103.37 30.1243 102.407 33.2701 101.636 37.2689L99.6702 52.2244C100.865 52.0645 101.848 51.318 102.619 49.9851L103.486 50.9448C102.33 52.8642 100.884 53.824 99.1498 53.824C97.4154 53.824 96.0471 53.2108 95.0449 51.9845C94.0813 50.7582 93.5995 49.1587 93.5995 47.1859C93.5995 46.4395 93.9079 43.507 94.5246 38.3885L96.4325 23.5929C95.2762 23.7529 94.3126 24.4993 93.5417 25.8323L92.6745 24.8726C93.8308 22.9531 95.2762 21.9934 97.0106 21.9934C98.7837 21.9934 100.152 22.6066 101.116 23.8329C102.079 25.0592 102.561 26.792 102.561 29.0313V29.5112C104.141 24.4993 106.608 21.9934 109.961 21.9934C112.235 21.9934 114.008 22.8998 115.28 24.7126C116.552 26.4721 117.188 28.9247 117.188 32.0704C117.188 33.7233 116.822 36.9223 116.09 41.6676C115.357 46.3595 114.953 49.8785 114.876 52.2244Z" fill="black"/>
<path d="M114.876 52.2244C115.801 52.2244 116.764 51.478 117.766 49.9851L118.634 50.9448C118.364 51.6913 117.766 52.3577 116.841 52.9442C115.916 53.5307 114.895 53.824 113.777 53.824C110.27 53.824 108.516 51.6379 108.516 47.2659C108.516 45.3998 108.863 42.0675 109.557 37.2689C110.25 32.4703 110.597 29.3246 110.597 27.8317C110.597 25.539 109.807 24.3927 108.227 24.3927C106.955 24.3927 105.721 25.539 104.527 27.8317C103.37 30.1243 102.407 33.2701 101.636 37.2689L99.6702 52.2244C100.865 52.0645 101.848 51.318 102.619 49.9851L103.486 50.9448C102.33 52.8642 100.884 53.824 99.1498 53.824C97.4154 53.824 96.0471 53.2108 95.0449 51.9845C94.0813 50.7582 93.5995 49.1587 93.5995 47.1859C93.5995 46.4395 93.9079 43.507 94.5246 38.3885L96.4325 23.5929C95.2762 23.7529 94.3126 24.4993 93.5417 25.8323L92.6745 24.8726C93.8308 22.9531 95.2762 21.9934 97.0106 21.9934C98.7837 21.9934 100.152 22.6066 101.116 23.8329C102.079 25.0592 102.561 26.792 102.561 29.0313V29.5112C104.141 24.4993 106.608 21.9934 109.961 21.9934C112.235 21.9934 114.008 22.8998 115.28 24.7126C116.552 26.4721 117.188 28.9247 117.188 32.0704C117.188 33.7233 116.822 36.9223 116.09 41.6676C115.357 46.3595 114.953 49.8785 114.876 52.2244Z" fill="black" fill-opacity="0.2"/>
<path d="M82.0099 21.9934C86.9049 21.9934 89.3524 24.6859 89.3524 30.071C89.3524 33.43 88.1961 35.9893 85.8835 37.7487C83.6095 39.4549 80.3525 40.3346 76.1127 40.3879C76.0356 42.3074 75.9971 43.8269 75.9971 44.9466C75.9971 47.3459 76.3825 49.132 77.1534 50.305C77.9628 51.4247 78.965 51.9845 80.1598 51.9845C81.3547 51.9845 82.4339 51.6646 83.3975 51.0248C84.3996 50.385 85.1897 49.6385 85.7679 48.7855C86.3461 47.8791 86.8471 46.946 87.2711 45.9863C88.042 44.2268 88.4274 43.1071 88.4274 42.6273L89.4681 43.2671C89.3525 44.1202 89.0056 45.2665 88.4274 46.7061C87.8493 48.0923 87.2133 49.2387 86.5195 50.1451C85.8257 51.0515 84.8043 51.9045 83.4553 52.7043C82.1063 53.4507 80.6031 53.824 78.9457 53.824C75.8237 53.824 73.4532 52.8109 71.8344 50.7849C70.2541 48.7055 69.464 45.8797 69.464 42.3074C69.464 35.9626 70.601 31.0041 72.8751 27.4318C75.1491 23.8062 78.1941 21.9934 82.0099 21.9934ZM87.9071 30.071C87.9071 28.3115 87.5216 26.872 86.7508 25.7523C86.0184 24.5793 84.9007 23.9928 83.3975 23.9928C81.9328 23.9928 80.4874 25.2191 79.0613 27.6717C77.6737 30.1243 76.7487 33.7499 76.2862 38.5485C84.0334 38.4952 87.9071 35.6694 87.9071 30.071Z" fill="black"/>
<path d="M82.0099 21.9934C86.9049 21.9934 89.3524 24.6859 89.3524 30.071C89.3524 33.43 88.1961 35.9893 85.8835 37.7487C83.6095 39.4549 80.3525 40.3346 76.1127 40.3879C76.0356 42.3074 75.9971 43.8269 75.9971 44.9466C75.9971 47.3459 76.3825 49.132 77.1534 50.305C77.9628 51.4247 78.965 51.9845 80.1598 51.9845C81.3547 51.9845 82.4339 51.6646 83.3975 51.0248C84.3996 50.385 85.1897 49.6385 85.7679 48.7855C86.3461 47.8791 86.8471 46.946 87.2711 45.9863C88.042 44.2268 88.4274 43.1071 88.4274 42.6273L89.4681 43.2671C89.3525 44.1202 89.0056 45.2665 88.4274 46.7061C87.8493 48.0923 87.2133 49.2387 86.5195 50.1451C85.8257 51.0515 84.8043 51.9045 83.4553 52.7043C82.1063 53.4507 80.6031 53.824 78.9457 53.824C75.8237 53.824 73.4532 52.8109 71.8344 50.7849C70.2541 48.7055 69.464 45.8797 69.464 42.3074C69.464 35.9626 70.601 31.0041 72.8751 27.4318C75.1491 23.8062 78.1941 21.9934 82.0099 21.9934ZM87.9071 30.071C87.9071 28.3115 87.5216 26.872 86.7508 25.7523C86.0184 24.5793 84.9007 23.9928 83.3975 23.9928C81.9328 23.9928 80.4874 25.2191 79.0613 27.6717C77.6737 30.1243 76.7487 33.7499 76.2862 38.5485C84.0334 38.4952 87.9071 35.6694 87.9071 30.071Z" fill="black" fill-opacity="0.2"/>
<path d="M47.228 24.8726C48.3843 22.9531 49.8297 21.9934 51.5642 21.9934C53.3372 21.9934 54.7055 22.6066 55.6691 23.8329C56.6326 25.0592 57.1144 26.792 57.1144 29.0313V29.5112C58.8489 24.4993 61.1037 21.9934 63.8788 21.9934C66.8467 21.9934 68.3306 24.1261 68.3306 28.3915C68.3306 30.151 67.9066 32.0171 67.0587 33.9899C66.2107 35.9626 65.3628 37.8554 64.5148 39.6682C63.6669 41.4276 63.2429 43.0005 63.2429 44.3868H61.8553C61.8553 42.414 62.684 39.7481 64.3414 36.3891C65.9987 33.0301 66.8274 30.4442 66.8274 28.6314C66.8274 26.7653 66.5576 25.5124 66.018 24.8726C65.5169 24.1794 64.7461 23.8329 63.7054 23.8329C62.7033 23.8329 61.7011 24.446 60.699 25.6723C59.7354 26.8986 58.926 28.4448 58.2708 30.3109C57.2301 33.0835 56.5363 35.3494 56.1894 37.1089V37.1889L54.108 53.1042H47.1702L50.986 23.5929C49.8297 23.7529 48.8661 24.4993 48.0952 25.8323L47.228 24.8726Z" fill="black"/>
<path d="M47.228 24.8726C48.3843 22.9531 49.8297 21.9934 51.5642 21.9934C53.3372 21.9934 54.7055 22.6066 55.6691 23.8329C56.6326 25.0592 57.1144 26.792 57.1144 29.0313V29.5112C58.8489 24.4993 61.1037 21.9934 63.8788 21.9934C66.8467 21.9934 68.3306 24.1261 68.3306 28.3915C68.3306 30.151 67.9066 32.0171 67.0587 33.9899C66.2107 35.9626 65.3628 37.8554 64.5148 39.6682C63.6669 41.4276 63.2429 43.0005 63.2429 44.3868H61.8553C61.8553 42.414 62.684 39.7481 64.3414 36.3891C65.9987 33.0301 66.8274 30.4442 66.8274 28.6314C66.8274 26.7653 66.5576 25.5124 66.018 24.8726C65.5169 24.1794 64.7461 23.8329 63.7054 23.8329C62.7033 23.8329 61.7011 24.446 60.699 25.6723C59.7354 26.8986 58.926 28.4448 58.2708 30.3109C57.2301 33.0835 56.5363 35.3494 56.1894 37.1089V37.1889L54.108 53.1042H47.1702L50.986 23.5929C49.8297 23.7529 48.8661 24.4993 48.0952 25.8323L47.228 24.8726Z" fill="black" fill-opacity="0.2"/>
<path d="M9.7708 38.5486C8.73012 37.4289 7.80508 35.7227 6.99566 33.4301C6.18625 31.1374 5.78154 28.5515 5.78154 25.6724C5.78154 22.7932 6.10916 20.1274 6.7644 17.6748C7.41964 15.2221 8.38323 13.0095 9.65517 11.0367C10.9657 9.01066 12.7001 7.41113 14.8586 6.23815C17.017 5.01185 19.3103 4.39869 21.7386 4.39869C24.1668 4.39869 26.3638 4.66528 28.3295 5.19846C30.2953 5.67831 31.837 6.21149 32.9548 6.79798C34.0725 7.33116 35.0554 7.86433 35.9034 8.39751C36.7899 8.87737 37.5029 9.27725 38.0425 9.59715C38.5821 9.86374 38.9098 10.0237 39.0254 10.077C39.141 10.1303 39.4494 10.2903 39.9504 10.5569C40.4515 10.8235 40.7791 10.9834 40.9333 11.0367C41.126 11.09 41.4344 11.2233 41.8583 11.4366C42.3209 11.6499 42.6678 11.7832 42.899 11.8365C43.1688 11.8898 43.5157 11.9964 43.9397 12.1564C44.3637 12.263 44.7298 12.343 45.0382 12.3963C45.3465 12.3963 45.7127 12.423 46.1367 12.4763C46.5607 12.5296 46.9654 12.5563 47.3508 12.5563C49.2394 12.5563 50.8775 12.1297 52.2651 11.2767C53.6912 10.3703 54.7126 9.38388 55.3293 8.31753C55.9846 7.25118 56.5049 6.02488 56.8903 4.63863C57.3529 2.93246 57.5841 1.38626 57.5841 0H58.8561C58.8561 1.27962 58.6055 2.85249 58.1045 4.7186C57.6419 6.53139 57.0445 8.0776 56.3122 9.35722C55.6184 10.5835 54.4814 11.7032 52.9011 12.7162C51.3208 13.7293 49.4322 14.2358 47.2352 14.2358C45.0767 14.2358 42.899 13.7559 40.702 12.7962C38.0811 17.9147 35.3252 28.2316 32.4344 43.747C31.0083 51.5314 28.9462 57.183 26.2482 60.702C23.5887 64.2743 19.715 66.0604 14.6273 66.0604C9.57808 66.0604 5.80081 63.9277 3.29548 59.6623C1.09849 55.8768 0 51.4781 0 46.4662C0 45.8264 0.0192718 45.1866 0.0578155 44.5468H1.38757V45.6664C1.38757 49.3454 2.10063 52.9443 3.52674 56.4632C4.14344 57.9561 4.87576 59.2358 5.72372 60.3021C6.61023 61.4218 7.78581 62.3548 9.25046 63.1013C10.7151 63.8477 12.3532 64.2209 14.1648 64.2209C17.1712 64.2209 19.5416 62.5414 21.2761 59.1824C23.0491 55.8234 24.745 49.3454 26.3638 39.7482C28.0212 30.0977 29.6978 23.2198 31.3938 19.1143C33.1282 14.9556 35.6335 12.5563 38.9098 11.9165C37.9076 11.3833 36.8477 10.7968 35.7299 10.157C34.6121 9.46386 33.5329 8.87737 32.4922 8.39751C31.4901 7.86433 30.0255 7.35782 28.0983 6.87796C26.2096 6.34479 24.0897 6.0782 21.7386 6.0782C19.3874 6.0782 17.1904 6.66469 15.1476 7.83767C13.1434 9.01066 11.5823 10.5569 10.4646 12.4763C8.22906 16.2085 7.11129 20.5272 7.11129 25.4325C7.11129 28.205 7.47746 30.6576 8.20978 32.7903C8.94211 34.8697 9.82862 36.4159 10.8693 37.4289C12.9892 39.4016 14.9164 40.5213 16.6508 40.7879L17.7493 40.9478L17.4024 42.7073C16.4388 42.7073 15.1862 42.3074 13.6444 41.5077C12.1412 40.6546 10.85 39.6682 9.7708 38.5486Z" fill="black"/>
<path d="M9.7708 38.5486C8.73012 37.4289 7.80508 35.7227 6.99566 33.4301C6.18625 31.1374 5.78154 28.5515 5.78154 25.6724C5.78154 22.7932 6.10916 20.1274 6.7644 17.6748C7.41964 15.2221 8.38323 13.0095 9.65517 11.0367C10.9657 9.01066 12.7001 7.41113 14.8586 6.23815C17.017 5.01185 19.3103 4.39869 21.7386 4.39869C24.1668 4.39869 26.3638 4.66528 28.3295 5.19846C30.2953 5.67831 31.837 6.21149 32.9548 6.79798C34.0725 7.33116 35.0554 7.86433 35.9034 8.39751C36.7899 8.87737 37.5029 9.27725 38.0425 9.59715C38.5821 9.86374 38.9098 10.0237 39.0254 10.077C39.141 10.1303 39.4494 10.2903 39.9504 10.5569C40.4515 10.8235 40.7791 10.9834 40.9333 11.0367C41.126 11.09 41.4344 11.2233 41.8583 11.4366C42.3209 11.6499 42.6678 11.7832 42.899 11.8365C43.1688 11.8898 43.5157 11.9964 43.9397 12.1564C44.3637 12.263 44.7298 12.343 45.0382 12.3963C45.3465 12.3963 45.7127 12.423 46.1367 12.4763C46.5607 12.5296 46.9654 12.5563 47.3508 12.5563C49.2394 12.5563 50.8775 12.1297 52.2651 11.2767C53.6912 10.3703 54.7126 9.38388 55.3293 8.31753C55.9846 7.25118 56.5049 6.02488 56.8903 4.63863C57.3529 2.93246 57.5841 1.38626 57.5841 0H58.8561C58.8561 1.27962 58.6055 2.85249 58.1045 4.7186C57.6419 6.53139 57.0445 8.0776 56.3122 9.35722C55.6184 10.5835 54.4814 11.7032 52.9011 12.7162C51.3208 13.7293 49.4322 14.2358 47.2352 14.2358C45.0767 14.2358 42.899 13.7559 40.702 12.7962C38.0811 17.9147 35.3252 28.2316 32.4344 43.747C31.0083 51.5314 28.9462 57.183 26.2482 60.702C23.5887 64.2743 19.715 66.0604 14.6273 66.0604C9.57808 66.0604 5.80081 63.9277 3.29548 59.6623C1.09849 55.8768 0 51.4781 0 46.4662C0 45.8264 0.0192718 45.1866 0.0578155 44.5468H1.38757V45.6664C1.38757 49.3454 2.10063 52.9443 3.52674 56.4632C4.14344 57.9561 4.87576 59.2358 5.72372 60.3021C6.61023 61.4218 7.78581 62.3548 9.25046 63.1013C10.7151 63.8477 12.3532 64.2209 14.1648 64.2209C17.1712 64.2209 19.5416 62.5414 21.2761 59.1824C23.0491 55.8234 24.745 49.3454 26.3638 39.7482C28.0212 30.0977 29.6978 23.2198 31.3938 19.1143C33.1282 14.9556 35.6335 12.5563 38.9098 11.9165C37.9076 11.3833 36.8477 10.7968 35.7299 10.157C34.6121 9.46386 33.5329 8.87737 32.4922 8.39751C31.4901 7.86433 30.0255 7.35782 28.0983 6.87796C26.2096 6.34479 24.0897 6.0782 21.7386 6.0782C19.3874 6.0782 17.1904 6.66469 15.1476 7.83767C13.1434 9.01066 11.5823 10.5569 10.4646 12.4763C8.22906 16.2085 7.11129 20.5272 7.11129 25.4325C7.11129 28.205 7.47746 30.6576 8.20978 32.7903C8.94211 34.8697 9.82862 36.4159 10.8693 37.4289C12.9892 39.4016 14.9164 40.5213 16.6508 40.7879L17.7493 40.9478L17.4024 42.7073C16.4388 42.7073 15.1862 42.3074 13.6444 41.5077C12.1412 40.6546 10.85 39.6682 9.7708 38.5486Z" fill="black" fill-opacity="0.2"/>
</svg>
